<?xml version="1.0" standalone="no"?>
<!DOCTYPE svg PUBLIC "-//W3C//DTD SVG 20010904//EN"
 "http://www.w3.org/TR/2001/REC-SVG-20010904/DTD/svg10.dtd">
<svg version="1.0" xmlns="http://www.w3.org/2000/svg"
 width="700.000000pt" height="700.000000pt" viewBox="0 0 700.000000 700.000000"
 preserveAspectRatio="xMidYMid meet">
<metadata>
Created by potrace 1.14, written by Peter Selinger 2001-2017
</metadata>
<g transform="translate(0.000000,700.000000) scale(0.100000,-0.100000)"
fill="#000000" stroke="none">
<path d="M3417 6234 c-1 -1 -50 -4 -109 -8 -339 -21 -697 -116 -1003 -267 -84
-41 -86 -41 -205 -24 -19 3 -51 7 -70 9 -19 2 -60 8 -90 12 -70 11 -216 11
-350 0 -58 -4 -123 -10 -145 -11 -22 -2 -71 -6 -110 -9 -38 -3 -110 -8 -160
-11 -127 -9 -122 -6 -130 -78 -11 -104 -16 -140 -40 -316 -8 -58 -15 -119 -15
-138 l0 -33 68 5 c37 3 94 7 127 10 33 3 96 7 140 10 44 3 109 8 145 11 l65 6
-31 -34 c-54 -58 -91 -101 -144 -168 -28 -36 -58 -73 -66 -83 -22 -27 -137
-205 -167 -257 -51 -90 -139 -274 -174 -363 -37 -98 -108 -322 -116 -372 -3
-17 -12 -61 -20 -100 -9 -38 -19 -97 -22 -130 -4 -33 -9 -69 -11 -79 -5 -27
-16 -200 -18 -277 -1 -35 -4 -68 -8 -74 -3 -5 -9 -40 -12 -77 -4 -37 -9 -77
-11 -90 -2 -13 -14 -97 -25 -188 -11 -91 -23 -175 -25 -187 -3 -18 1 -23 18
-24 25 -1 69 -6 107 -12 22 -3 27 -13 43 -73 19 -75 73 -247 87 -279 5 -11 28
-65 51 -120 67 -156 144 -299 237 -435 187 -275 406 -503 662 -689 30 -22 60
-44 66 -48 5 -4 19 -13 30 -20 10 -6 55 -34 99 -62 284 -176 655 -312 990
-362 174 -25 257 -32 420 -32 197 0 280 8 530 49 17 2 66 14 110 25 44 12 87
22 96 24 53 11 259 83 354 125 113 49 387 196 428 230 7 6 68 51 137 102 227
167 484 444 652 703 179 275 315 613 378 937 26 130 14 118 107 103 37 -7 39
-4 47 60 9 69 36 273 41 310 2 17 7 51 10 77 l6 46 -38 6 c-21 4 -53 8 -72 11
-19 2 -37 8 -41 12 -4 4 -11 53 -14 108 -3 55 -8 111 -10 125 -3 14 -7 48 -11
75 -31 254 -146 614 -276 860 -83 159 -195 332 -283 440 -23 27 -50 61 -61 75
-52 67 -322 324 -412 393 -437 333 -927 521 -1468 563 -70 5 -284 11 -288 8z"/>
<path d="M6976 2710 c-13 -14 -23 -53 -36 -147 -21 -147 -30 -212 -35 -267 -4
-37 -7 -59 -20 -154 -7 -47 -6 -48 68 -56 l47 -5 0 325 c0 178 -1 324 -2 323
-2 0 -11 -9 -22 -19z"/>
</g>
</svg>
